<svg width="300" height="45" viewBox="0 0 300 45" fill="none" xmlns="http://www.w3.org/2000/svg">
<rect width="300" height="45" rx="6" fill="#FEE500"/>
<g clip-path="url(#clip0_124_933)">
<path fill-rule="evenodd" clip-rule="evenodd" d="M105 14.1C100.029 14.1 96 17.2129 96 21.0523C96 23.44 97.5584 25.5449 99.9315 26.7969L98.933 30.4445C98.8448 30.7668 99.2134 31.0237 99.4965 30.8369L103.873 27.9482C104.243 27.9838 104.618 28.0046 105 28.0046C109.97 28.0046 114 24.8918 114 21.0523C114 17.2129 109.97 14.1 105 14.1Z" fill="black"/>
</g>
<path d="M129.215 16.215C129.2 20.79 127.115 23.85 123.29 25.86L122.3 24.75C124.235 23.865 125.855 22.44 126.77 20.595L122.855 21.015L122.615 19.68L127.28 19.335C127.445 18.735 127.565 18.12 127.61 17.46H123.29V16.215H129.215ZM132.83 14.82V20.04H134.9V21.315H132.83V28.185H131.285V14.82H132.83ZM142.193 16.215C142.178 20.79 140.093 23.85 136.268 25.86L135.278 24.75C137.213 23.865 138.833 22.44 139.748 20.595L135.833 21.015L135.593 19.68L140.258 19.335C140.423 18.735 140.543 18.12 140.588 17.46H136.268V16.215H142.193ZM145.808 14.82V20.04H147.878V21.315H145.808V28.185H144.263V14.82H145.808ZM160.482 26.475H148.407V25.245H153.657V22.965C151.182 22.725 149.607 21.315 149.607 19.32C149.607 17.115 151.542 15.645 154.437 15.645C157.377 15.645 159.297 17.115 159.297 19.32C159.297 21.33 157.692 22.74 155.187 22.98V25.245H160.482V26.475ZM157.752 19.335C157.752 17.91 156.447 16.905 154.437 16.905C152.472 16.905 151.152 17.91 151.152 19.335C151.152 20.745 152.472 21.705 154.437 21.705C156.432 21.705 157.752 20.745 157.752 19.335ZM176.231 23.025H172.106V25.26H177.401V26.49H165.326V25.26H170.576V23.025H166.871V18.705H174.311V16.98H166.826V15.75H175.841V19.95H168.416V21.78H176.231V23.025ZM190.379 26.235H178.304V24.99H190.379V26.235ZM188.804 16.26C188.804 19.8 188.579 22.305 188.219 24.06L186.704 23.865C187.034 22.53 187.259 19.635 187.259 17.475H179.699V16.26H188.804ZM202.278 24.51H200.748V14.82H202.278V24.51ZM202.593 27.795H193.443V23.595H194.973V26.565H202.593V27.795ZM198.528 19.08C198.528 20.985 197.148 22.35 195.108 22.35C193.068 22.35 191.658 20.985 191.658 19.095C191.658 17.19 193.053 15.81 195.108 15.81C197.148 15.81 198.528 17.175 198.528 19.08ZM196.998 19.08C196.998 17.91 196.278 17.085 195.108 17.085C193.968 17.085 193.203 17.94 193.203 19.08C193.203 20.175 193.968 21.045 195.108 21.045C196.278 21.045 196.998 20.175 196.998 19.08Z" fill="black" fill-opacity="0.85"/>
<defs>
<clipPath id="clip0_124_933">
<rect width="17.9999" height="18" fill="white" transform="translate(96 13.5)"/>
</clipPath>
</defs>
</svg>
